<?xml version="1.0" encoding="UTF-8" standalone="no"?>
<svg
   xmlns:dc="http://purl.org/dc/elements/1.1/"
   xmlns:cc="http://creativecommons.org/ns#"
   xmlns:rdf="http://www.w3.org/1999/02/22-rdf-syntax-ns#"
   xmlns:svg="http://www.w3.org/2000/svg"
   xmlns="http://www.w3.org/2000/svg"
   xmlns:sodipodi="http://sodipodi.sourceforge.net/DTD/sodipodi-0.dtd"
   xmlns:inkscape="http://www.inkscape.org/namespaces/inkscape"
   width="48px"
   height="48px"
   viewBox="0 0 48 48"
   version="1.1"
   id="svg18"
   sodipodi:docname="help.svg"
   inkscape:version="0.92.3 (2405546, 2018-03-11)">
  <metadata
     id="metadata22">
    <rdf:RDF>
      <cc:Work
         rdf:about="">
        <dc:format>image/svg+xml</dc:format>
        <dc:type
           rdf:resource="http://purl.org/dc/dcmitype/StillImage" />
        <dc:title />
      </cc:Work>
    </rdf:RDF>
  </metadata>
  <sodipodi:namedview
     pagecolor="#ffffff"
     bordercolor="#666666"
     borderopacity="1"
     objecttolerance="10"
     gridtolerance="10"
     guidetolerance="10"
     inkscape:pageopacity="0"
     inkscape:pageshadow="2"
     inkscape:window-width="1920"
     inkscape:window-height="1018"
     id="namedview20"
     showgrid="false"
     inkscape:zoom="13.906433"
     inkscape:cx="18.399542"
     inkscape:cy="23.412521"
     inkscape:window-x="-8"
     inkscape:window-y="-8"
     inkscape:window-maximized="1"
     inkscape:current-layer="svg18"
     showguides="true"
     inkscape:guide-bbox="true" />
  <defs
     id="defs4">
    <style
       type="text/css"
       id="style2"><![CDATA[
    .str0 {stroke:black;stroke-width:1.82;stroke-miterlimit:22.9256}
    .str1 {stroke:black;stroke-width:2.14;stroke-miterlimit:22.9256}
    .str2 {stroke:black;stroke-width:0.82;stroke-miterlimit:22.9256}
    .fil3 {fill:none}
    .fil1 {fill:#0026FF}
    .fil2 {fill:#00FF11}
    .fil0 {fill:#FFED00}
   ]]></style>
  </defs>
  <path
     class="fil0 str0"
     d="M 7.244975,27.833153 C 5.1307447,26.829538 3.6120409,24.773237 3.3821692,22.338367 H 2.4110254 c 0.3302331,3.988996 3.6650349,7.123444 7.7385266,7.123444 0.145745,0 0.284849,-0.01292 0.427273,-0.02251 L 8.1094849,26.968642 Z m 0.5763402,-4.22551 c -0.1228692,0 -0.2361444,-0.01623 -0.3398266,-0.05498 C 7.3811271,23.516873 7.29368,23.465213 7.2224678,23.400277 7.1512558,23.335707 7.0959091,23.254532 7.0571665,23.164132 7.0184245,23.070042 6.9988685,22.969682 6.9988685,22.859728 H 6.1572348 c 0,0.233192 0.045015,0.437236 0.1357832,0.615082 0.090768,0.178216 0.210685,0.326913 0.362703,0.443509 0.1523868,0.119917 0.3269125,0.207364 0.5276352,0.268984 0.2007226,0.06457 0.408087,0.09372 0.6283655,0.09372 0.239465,0 0.4630645,-0.03247 0.6700596,-0.09704 0.2073644,-0.06494 0.3855799,-0.16198 0.5375979,-0.28817 0.1520176,-0.12619 0.2689831,-0.281897 0.3560612,-0.466385 0.084495,-0.184487 0.1295105,-0.395173 0.1295105,-0.631317 0,-0.126189 -0.016234,-0.246107 -0.045015,-0.362704 C 9.4274679,22.31881 9.3787609,22.208856 9.3138219,22.105174 9.2459299,22.001491 9.1584829,21.910723 9.0518489,21.826966 8.9448461,21.745786 8.812015,21.6779 8.659997,21.622923 c 0.1295104,-0.0583 0.2427861,-0.129511 0.3398266,-0.213637 0.097409,-0.0845 0.1782151,-0.174895 0.2427856,-0.268984 0.06494,-0.09704 0.1136449,-0.194081 0.1461145,-0.297763 0.032101,-0.103682 0.048335,-0.207365 0.048335,-0.307726 0,-0.236144 -0.038742,-0.443509 -0.1165963,-0.621724 C 9.242609,19.735244 9.132654,19.586178 8.9902295,19.46626 8.847805,19.346713 8.679183,19.255945 8.4784603,19.194326 c -0.2069955,-0.06457 -0.4272739,-0.09372 -0.666739,-0.09372 -0.2331926,0 -0.4501504,0.03542 -0.6475521,0.103682 -0.1977713,0.06789 -0.366024,0.164932 -0.5084486,0.28817 -0.1424245,0.122869 -0.2527483,0.268614 -0.3335541,0.436867 -0.080805,0.168621 -0.1199169,0.35311 -0.1199169,0.550511 h 0.8420023 c 0,-0.109954 0.019555,-0.206995 0.058298,-0.29149 0.038742,-0.08708 0.09372,-0.161612 0.1619804,-0.21991 0.067891,-0.06162 0.152018,-0.110323 0.2461067,-0.142424 0.09372,-0.03247 0.197402,-0.05202 0.3077259,-0.05202 0.2590208,0 0.4497811,0.06826 0.5763398,0.200723 0.1261897,0.132832 0.1878085,0.32064 0.1878085,0.560105 0,0.116597 -0.016233,0.220279 -0.052026,0.314367 -0.035422,0.09372 -0.087079,0.174526 -0.1582908,0.242787 -0.071212,0.06789 -0.1619804,0.119547 -0.2656622,0.15829 -0.1070032,0.03911 -0.2331929,0.0583 -0.3756175,0.0583 l -0.4988551,3.69e-4 v 0.663788 h 0.4988551 c 0.1424246,0 0.2719354,0.01587 0.3852106,0.04833 0.1132757,0.03247 0.210685,0.0808 0.2914908,0.152387 0.080806,0.06789 0.1424245,0.155339 0.1878085,0.259021 0.042063,0.103682 0.064571,0.226551 0.064571,0.368976 0,0.262341 -0.074533,0.463065 -0.2265513,0.602168 -0.1457453,0.136152 -0.3497889,0.204043 -0.6121304,0.204043 z M 13.364805,19.770666 C 13.160763,19.557029 12.914655,19.391728 12.629806,19.2755 12.341636,19.158536 12.027638,19.100606 11.68117,19.100606 h -1.531618 v 5.180418 l 1.486234,3.69e-4 c 0.359382,0 0.682974,-0.0583 0.977785,-0.174895 0.294443,-0.116965 0.543871,-0.281897 0.750866,-0.495534 0.207365,-0.213636 0.369345,-0.472658 0.479299,-0.77411 0.113276,-0.301085 0.168622,-0.640911 0.168622,-1.016528 v -0.255701 c 0,-0.375617 -0.0583,-0.712492 -0.171574,-1.016897 -0.113644,-0.304404 -0.272304,-0.563425 -0.475979,-0.777062 z m -0.2557,2.05298 c 0,0.268614 -0.02915,0.514721 -0.09409,0.728358 -0.06162,0.216958 -0.152018,0.398494 -0.275256,0.547191 -0.12287,0.149066 -0.275256,0.262341 -0.459745,0.343516 -0.184488,0.07748 -0.398124,0.119549 -0.644231,0.119549 h -0.5863 v -3.736617 h 0.631687 c 0.466017,0 0.819126,0.149066 1.065233,0.443878 0.242785,0.297763 0.366023,0.725406 0.366023,1.288462 v 0.265663 z m -2.959553,-7.903827 c -0.145746,0 -0.2848499,0.01291 -0.4276433,0.02251 l 2.4673403,2.470661 0.861558,-0.861189 c 2.117552,1.000662 3.635887,3.056594 3.865758,5.491464 h 0.971513 c -0.330233,-3.988998 -3.665404,-7.123446 -7.738526,-7.123446 z"
     id="path6"
     inkscape:connector-curvature="0"
     style="fill:#ffed00;stroke:#000000;stroke-width:0.06715357;stroke-miterlimit:22.92560005" />
  <path
     class="fil0 str1"
     d="m 20.19632,29.892406 h 5.561271 v -7.956222 h -2.718096 c -1.563791,0 -2.843175,1.585119 -2.843175,3.522979 z"
     id="path8"
     inkscape:connector-curvature="0"
     style="fill:#ffed00;stroke:#000000;stroke-width:0.07093832;stroke-miterlimit:22.92560005" />
  <path
     class="fil1 str1"
     d="m 31.318861,29.892406 h -5.56127 v -7.956222 h 2.718095 c 1.563791,0 2.843175,1.585119 2.843175,3.522979 z"
     id="path10"
     inkscape:connector-curvature="0"
     style="fill:#d81b60;stroke:#000000;stroke-width:0.07093832;stroke-miterlimit:22.92560005;fill-opacity:1" />
  <path
     id="move_48px.svg"
     class="fil2 str2"
     d="m 24.49016,12.896281 h 2.590208 v -1.942657 h 1.942657 l -3.237761,-3.2377609 -3.23813,3.2377609 h 1.943026 z m 2.590208,1.943025 H 24.49016 v 1.942657 h -1.943026 l 3.23813,3.237761 3.237761,-3.237761 h -1.942657 z"
     inkscape:connector-curvature="0"
     style="fill:#00ff11;stroke:#000000;stroke-width:0.030256;stroke-miterlimit:22.92560005" />
  <path
     id="pan_tool_48px.svg"
     class="fil1 str2"
     d="m 45.59851,18.132932 v 8.524178 c 0,1.293248 -0.907232,2.351359 -2.016074,2.351359 H 39.90296 c -0.544515,0 -1.058583,-0.252552 -1.436525,-0.699713 l -3.956617,-4.690994 c 0,0 0.634977,-0.72316 0.655081,-0.734884 0.110855,-0.111874 0.246983,-0.170489 0.398332,-0.170489 0.110855,0 0.211659,0.03517 0.302411,0.09412 0.0201,0.0056 2.172305,1.445984 2.172305,1.445984 v -7.001488 c 0,-0.48769 0.337736,-0.881593 0.75617,-0.881593 0.418436,0 0.756173,0.393568 0.756173,0.881593 v 4.115212 h 0.503731 v -5.58498 c 0,-0.487688 0.337735,-0.881592 0.756171,-0.881592 0.418434,0 0.756172,0.393569 0.756172,0.881592 v 5.58498 h 0.504016 v -4.996808 c 0,-0.488024 0.337738,-0.881926 0.756172,-0.881926 0.418436,0 0.755884,0.393902 0.755884,0.881926 v 4.996805 h 0.50402 v -3.233286 c 0,-0.488024 0.337735,-0.881926 0.75617,-0.881926 0.418435,0 0.756173,0.393902 0.756173,0.881926 z"
     inkscape:connector-curvature="0"
     style="fill:#d81b60;stroke:#000000;stroke-width:0.02543252;stroke-miterlimit:22.92560005;fill-opacity:1" />
  <path
     class="fil3 str1"
     d="m 31.318861,29.892406 v 6.860732 c 0,1.937491 -1.279682,3.52261 -2.843175,3.52261 h -5.436191 c -1.563791,0 -2.843175,-1.585119 -2.843175,-3.52261 v -6.860732 z"
     id="path14"
     inkscape:connector-curvature="0"
     style="fill:#ffffff;stroke:#000000;stroke-width:0.07093832;stroke-miterlimit:22.92560005" />
  <polygon
     class="fil2 str1"
     points="657.6,448.57 657.6,566.51 609.86,566.51 609.86,448.57 "
     id="polygon16"
     transform="matrix(0.02978083,0,0,0.03689757,6.8845896,7.6944625)"
     style="fill:#00ff11;stroke:#000000;stroke-width:2.1400001;stroke-miterlimit:22.92560005" />
</svg>
